<svg id="Layer_1" enable-background="new 0 0 512.802 512.802" height="512" viewBox="0 0 512.802 512.802" width="512" xmlns="http://www.w3.org/2000/svg"><g><path d="m415.944 143.873h11.496c30.923 0 56.699 24.598 57.1 55.519.408 31.417-24.938 57.013-56.261 57.013l-42.878-.004v-20.58c0-16.57-13.432-30.002-30.002-30.002-16.57 0-30.002 13.432-30.002 30.002v20.58h-68.997l.002-68.997h-20.58c-16.57 0-30.002-13.432-30.002-30.002 0-16.57 13.432-30.002 30.002-30.002h20.58l-.002-50.538c0-33.725 27.005-61.738 60.73-61.859 27.298-.098 50.434 17.754 58.299 42.423 1.113-.056 2.234-.085 3.361-.085 36.53 0 66.143 29.613 66.143 66.143 0 7.71-1.299 15.058-3.704 21.903" fill="#fff16b"/><path d="m440.261 145.33-24.317-1.457h11.496c4.399 0 8.689.513 12.821 1.457l.968.058c2.405-6.846 3.704-14.194 3.704-21.903 0-36.53-29.613-66.143-66.143-66.143-1.127 0-2.248.029-3.361.085-7.865-24.668-31.001-42.52-58.299-42.423-33.7.121-60.688 28.092-60.728 61.783v179.614h68.995v-20.58c0-16.57 13.432-30.002 30.002-30.002 16.57 0 30.002 13.432 30.002 30.002v20.58l42.878.004c31.323 0 56.669-25.596 56.261-57.013-.345-26.522-19.363-48.376-44.279-54.062z" fill="#ffd321"/><path d="m96.857 143.869h-11.496c-30.923 0-56.699 24.598-57.1 55.519-.408 31.417 24.938 57.013 56.261 57.013h42.878v20.587c0 16.57 13.432 30.002 30.002 30.002 16.57 0 30.002-13.432 30.002-30.002v-20.587h68.997v-68.997h-20.58c-16.57 0-30.002-13.432-30.002-30.002 0-16.57 13.432-30.002 30.002-30.002h20.58v-50.541c0-33.725-27.005-61.738-60.73-61.859-27.298-.098-50.434 17.754-58.299 42.423-1.113-.056-2.234-.085-3.361-.085-36.53 0-66.143 29.613-66.143 66.143 0 7.71 1.299 15.058 3.704 21.903" fill="#ff415b"/><path d="m415.944 368.932h11.496c30.923 0 56.699-24.598 57.1-55.519.408-31.417-24.938-57.013-56.261-57.013h-42.878v-20.58c0-16.57-13.432-30.002-30.002-30.002-16.57 0-30.002 13.432-30.002 30.002v20.58h-68.997l.002 68.997h20.58c16.57 0 30.002 13.432 30.002 30.002 0 16.57-13.432 30.002-30.002 30.002h-20.58l-.002 50.541c0 33.725 27.005 61.738 60.73 61.859 27.298.098 50.434-17.754 58.299-42.423 1.113.056 2.234.085 3.361.085 36.53 0 66.143-29.613 66.143-66.143 0-7.71-1.299-15.058-3.704-21.903" fill="#28e7ef"/><path d="m415.944 368.932h11.496c30.923 0 56.699-24.598 57.1-55.519.408-31.417-24.938-57.013-56.261-57.013h-42.878v-20.58c0-16.57-13.432-30.002-30.002-30.002-16.57 0-30.002 13.432-30.002 30.002v20.58h-68.997l.002 68.997h20.58c16.57 0 30.002 13.432 30.002 30.002 0 16.57-13.432 30.002-30.002 30.002h-20.58l-.002 50.541c0 33.725 27.005 61.738 60.73 61.859 27.298.098 50.434-17.754 58.299-42.423 1.113.056 2.234.085 3.361.085 36.53 0 66.143-29.613 66.143-66.143 0-7.71-1.299-15.058-3.704-21.903" fill="#1cace7"/><path d="m96.857 368.932h-11.496c-30.923 0-56.699-24.598-57.1-55.519-.408-31.417 24.938-57.013 56.261-57.013h42.878v20.587c0 16.57 13.432 30.002 30.002 30.002 16.57 0 30.002-13.432 30.002-30.002v-20.587h68.997v68.997h20.58c16.57 0 30.002 13.432 30.002 30.002 0 16.57-13.432 30.002-30.002 30.002h-20.58v50.541c0 33.725-27.005 61.738-60.73 61.859-27.298.098-50.434-17.754-58.299-42.423-1.113.056-2.234.085-3.361.085-36.53 0-66.143-29.613-66.143-66.143 0-7.71 1.299-15.058 3.704-21.903" fill="#cafa5c"/><path d="m276.981 385.402c16.57 0 30.002-13.432 30.002-30.002 0-16.57-13.432-30.002-30.002-30.002h-20.58v60.004z" fill="#8ee16a"/><path d="m472.006 256.402c2.439-1.904 4.782-3.961 6.993-6.201 13.494-13.671 20.788-31.785 20.539-51.004-.359-27.64-16.895-51.605-40.577-63.093.646-4.149.972-8.364.972-12.62 0-42.44-32.749-77.375-74.304-80.858-12.573-25.901-38.784-42.622-68.273-42.622-.092 0-.188 0-.279 0-24.808.088-46.865 12.312-60.675 31.083-13.81-18.773-35.867-30.998-60.677-31.087-.094 0-.186 0-.279 0-29.488 0-55.702 16.723-68.273 42.623-41.556 3.483-74.305 38.417-74.305 80.857 0 4.257.325 8.472.971 12.62-23.683 11.487-40.218 35.454-40.576 63.093-.25 19.22 7.045 37.333 20.54 51.004 2.212 2.24 4.556 4.299 6.995 6.203-2.44 1.905-4.783 3.963-6.995 6.203-13.495 13.671-20.789 31.784-20.54 51.004.358 27.64 16.894 51.606 40.576 63.094-.646 4.148-.971 8.363-.971 12.619 0 42.44 32.749 77.375 74.304 80.858 12.573 25.902 38.783 42.625 68.274 42.623h.279c24.809-.089 46.866-12.314 60.675-31.086 13.81 18.772 35.867 30.997 60.676 31.086h.279c29.487 0 55.7-16.723 68.272-42.623 41.556-3.483 74.305-38.418 74.305-80.858 0-4.256-.325-8.471-.972-12.619 23.683-11.487 40.218-35.454 40.577-63.093.249-19.22-7.045-37.334-20.539-51.005-2.21-2.239-4.553-4.297-6.992-6.201zm-154.822-226.398h.169c20.098 0 37.681 12.833 43.785 31.979l3.508 11.001 11.532-.576c.879-.044 1.758-.066 2.612-.066 28.2 0 51.143 22.943 51.143 51.144 0 1.823-.094 3.632-.28 5.422-.735-.021-1.473-.033-2.213-.033h-11.495v30h11.495c22.923 0 41.81 18.264 42.101 40.714.145 11.133-4.078 21.624-11.892 29.539-7.797 7.899-18.197 12.256-29.29 12.276-.027 0-.053-.002-.08-.002h-27.878v-5.58c0-24.814-20.188-45.002-45.002-45.002s-45.002 20.188-45.002 45.002v5.58h-38.995v-68.997h-35.58c-8.272 0-15.002-6.729-15.002-15.002s6.73-15.002 15.002-15.002h35.58.001l-.001-21.846v-43.697c0-.012-.001-.025-.001-.037.022-25.729 20.55-46.727 45.783-46.817zm-262.031 199.118c-7.813-7.915-12.037-18.406-11.893-29.54.291-22.449 19.178-40.713 42.101-40.713h11.496v-30h-11.495c-.74 0-1.478.012-2.213.033-.186-1.79-.28-3.599-.28-5.422 0-28.2 22.943-51.143 51.143-51.143.854 0 1.732.022 2.612.066l11.533.576 3.508-11.001c6.103-19.146 23.684-31.978 43.784-31.978h.169c25.233.091 45.763 21.091 45.783 46.822 0 .014-.001.028-.001.042l.001 35.536h-5.58c-24.814 0-45.002 20.188-45.002 45.002s20.188 45.002 45.002 45.002h5.58l-.001 38.996h-.001-68.995v35.587c0 8.272-6.73 15.002-15.002 15.002s-15.001-6.729-15.001-15.002v-35.587h-57.878c-11.124 0-21.554-4.36-29.37-12.278zm140.465 253.68c-.057 0-.112 0-.169 0-20.099 0-37.681-12.833-43.786-31.979l-3.507-11.001-11.533.576c-.879.044-1.758.066-2.612.066-28.2 0-51.143-22.943-51.143-51.144 0-1.823.094-3.632.28-5.421.735.021 1.473.033 2.213.033h11.496v-30h-11.495c-22.923 0-41.81-18.265-42.101-40.714-.145-11.134 4.079-21.625 11.893-29.54 7.815-7.918 18.246-12.278 29.37-12.278h27.878v5.587c0 24.814 20.188 45.002 45.002 45.002s45.001-20.188 45.001-45.002v-5.587h38.995.001l.002 52.498v16.5h35.58c8.272 0 15.002 6.729 15.002 15.002s-6.729 15.002-15.002 15.002h-35.58v13.108l-.002 52.433c0 .013.001.026.001.039-.022 25.729-20.552 46.729-45.784 46.82zm231.822-128.869h-11.495v30h11.495c.74 0 1.479-.012 2.213-.033.187 1.789.28 3.598.28 5.421 0 28.2-22.942 51.144-51.143 51.144-.854 0-1.733-.022-2.612-.066l-11.532-.576-3.508 11.001c-6.105 19.147-23.686 31.979-43.785 31.979-.056 0-.113 0-.169 0-25.232-.091-45.763-21.09-45.783-46.82 0-.013.001-.026.001-.04v-35.541h5.58c24.814 0 45.002-20.188 45.002-45.002s-20.188-45.002-45.002-45.002h-5.58v-38.998h68.995v-35.58c0-8.272 6.729-15.002 15.002-15.002s15.002 6.729 15.002 15.002v35.579.001h11.576l46.302.004c.027 0 .053-.002.08-.002 11.094.021 21.494 4.377 29.29 12.276 7.813 7.915 12.036 18.406 11.892 29.54-.292 22.45-19.178 40.715-42.101 40.715z" fill="#fb9"/><path d="m472.006 256.402c2.439-1.904 4.782-3.961 6.993-6.201 13.494-13.671 20.788-31.785 20.539-51.004-.359-27.64-16.895-51.605-40.577-63.093.646-4.149.972-8.364.972-12.62 0-42.44-32.749-77.375-74.304-80.858-12.573-25.901-38.784-42.622-68.273-42.622-.092 0-.188 0-.279 0-24.808.088-46.865 12.312-60.675 31.083v111.312h15 .001l-.001-21.846v-43.695c0-.012-.001-.025-.001-.037.022-25.729 20.551-46.728 45.783-46.817h.169c20.098 0 37.681 12.833 43.785 31.979l3.508 11.001 11.532-.576c.879-.044 1.758-.066 2.612-.066 28.2 0 51.143 22.943 51.143 51.144 0 1.823-.094 3.632-.28 5.422-.735-.021-1.473-.033-2.213-.033h-11.495v30h11.495c22.923 0 41.81 18.264 42.101 40.714.145 11.133-4.078 21.624-11.892 29.539-7.797 7.899-18.197 12.256-29.29 12.276-.027 0-.053-.002-.08-.002h-27.878v-5.58c0-24.814-20.188-45.002-45.002-45.002s-45.002 20.188-45.002 45.002v5.58h-38.995v-68.997h-15v167.994h20.58c8.272 0 15.002 6.729 15.002 15.002s-6.729 15.002-15.002 15.002h-20.58v111.315c13.81 18.771 35.866 30.996 60.675 31.085h.279c29.487 0 55.7-16.723 68.272-42.623 41.556-3.483 74.305-38.418 74.305-80.858 0-4.256-.325-8.471-.972-12.619 23.683-11.487 40.218-35.454 40.577-63.093.249-19.22-7.045-37.334-20.539-51.005-2.211-2.241-4.554-4.299-6.993-6.203zm-44.566 97.531h-11.495v30h11.495c.74 0 1.479-.012 2.213-.033.187 1.789.28 3.598.28 5.421 0 28.2-22.942 51.144-51.143 51.144-.854 0-1.733-.022-2.612-.066l-11.532-.576-3.508 11.001c-6.105 19.147-23.686 31.979-43.785 31.979-.056 0-.113 0-.169 0-25.232-.091-45.763-21.09-45.783-46.82 0-.013.001-.026.001-.04v-35.541h5.58c24.814 0 45.002-20.188 45.002-45.002s-20.188-45.002-45.002-45.002h-5.58v-38.998h68.995v-35.58c0-8.272 6.729-15.002 15.002-15.002s15.002 6.729 15.002 15.002v35.579.001h11.576l46.302.004c.027 0 .053-.002.08-.002 11.094.021 21.494 4.377 29.29 12.276 7.813 7.915 12.036 18.406 11.892 29.54-.292 22.45-19.178 40.715-42.101 40.715z" fill="#ff9680"/></g></svg>